/* XPM */
static char *wall3_21684406393[] = {
/* columns rows colors chars-per-pixel */
"60 60 72 1 ",
"  c #0B172D",
". c #0C1A2F",
"X c #000F30",
"o c #021536",
"O c #091733",
"+ c #0C1B35",
"@ c #04163C",
"# c #061A3D",
"$ c #0C1C3C",
"% c #101C32",
"& c #111E3C",
"* c #0E213E",
"= c #11213E",
"- c #041741",
"; c #071B42",
": c #0C1E42",
"> c #0C1F4A",
", c #101F42",
"< c #101F48",
"1 c #0E2144",
"2 c #0E234B",
"3 c #0E284D",
"4 c #122344",
"5 c #182744",
"6 c #152846",
"7 c #1A2947",
"8 c #13254B",
"9 c #18274B",
"0 c #15294D",
"q c #1A2A4D",
"w c #0E2552",
"e c #0E2853",
"r c #0F2A59",
"t c #122652",
"y c #182751",
"u c #152A53",
"i c #1A2C54",
"p c #112759",
"a c #152C5A",
"s c #1A2E5A",
"d c #1C3155",
"f c #16315D",
"g c #1C325C",
"h c #20314F",
"j c #202E55",
"k c #212F58",
"l c #223354",
"z c #22345C",
"x c #25385D",
"c c #162F61",
"v c #192F60",
"b c #173263",
"n c #1C3362",
"m c #1D3965",
"M c #17346E",
"N c #1B366C",
"B c #1E3A6C",
"V c #1A3771",
"C c #1D3A70",
"Z c #223662",
"A c #243964",
"S c #293C65",
"D c #213768",
"F c #233C6B",
"G c #293C68",
"H c #233E73",
"J c #253F78",
"K c #254173",
"L c #294176",
"P c #254179",
"I c #28437A",
"U c #2C4878",
/* pixels */
"isi00310zz4>441604004464122uvnat88q61++4*1600884m;8:***+&+&&",
"usuut30uzsut0u008888860i088pssauu46644444648y88wg>8$*+=*&$,&",
"affaueweZnssuusdssu0igiissasnZbsu<84381;840uiiuiz88;====&+&,",
"mmfgmAZfbbapttuuupuiigziuiasvbssZuiiiiiiyiuisssgnii:44=$,&44",
"uuu00ddigAZkzldzsvfsisiukaypasssiuissZzssssskzsszzziiqlqq449",
"4888160u<98<<;$8aZswy8808884<<84:18yiiyyy88t88488y9479qqyi89",
"8::18ii2sauyy88zkAg333164468444:1606ii8884448666<944:$,,4i82",
":8u044818>tuy8qzgns0114*84644444104:qj8i421:$==*,,44$:44:aiy",
"qi9468449iy986qxdnui114444:444668118idj0111$***+$&&4$&:,4sii",
"y4:$$#,4<<><21:2ua3311*118:481:*4:13yiiy21$$*444454=&&448sai",
"mmGFgffbnpccbbfbmmat330uugsks20iiuyyusiy884244&$$#&$&$+#:9<<",
"rbmFmKUUHBNMbBBmnmmgmgZnszZAnusZZZZnggzskskdzlj955q6777q,549",
"aaeew>2pnnvcreuwcapauuu0aasnDaaspuaattt882,<4898q84$$$&&&&&$",
"asuuautsnvnnatufpuaysusiiasbDsnpauuuuy838<44844<syj:&&%%&%+%",
"yiyy80uuzssaut0uiuyi0100usfamabauuuu086444448648sak<,&&*.%.%",
"suusatuaangsdu0308iqd40quiduGfnpty00066688444140spk<,$$%O.  ",
"rrmbbaaaBAmu33313$644,599448udat89i8yuy3880888ttigi8:$**$O+%",
"FmmNBHFFGZgu8;#$Xo8996,,,44488tii4ytuu8u4yy8y8ua8000i0414:,4",
"3ettett3038q847jq068qq9,iqjiidgxSZgfZDgZizzggzzzsisggddilxzl",
"u008838880q44699ziq::,4&,&:::13323teggt04444,:1:811811304i8>",
"zsiaisiyiiiyyjkkzdi::145$44413udgfu2fge0::$&$,,41**1**168d61",
"aisysuy888<yyyyiZfu:18446681:11>;3e3sZu0:49544464**14=1*6d01",
"ssksitidsiksssaagsg884$44=4$488833u3ugdi2644,,,114*16qq68q81",
"t2w8221::>28>>>>sut>i8664qq8448ui000dgdi87q5968646q688988i08",
"ssssddddd3difZGZzs>;:1&4++446944&,:&:4844#$+11ui449999<44q9$",
"uuyy800ut4seeiapuui8iq88qqiqqqqq97<,99q864811iiiiyy9<9<9454&",
"yiu8ty03iis228auaiiy8080qq8qiii99949iiiqqiqd0mfi49<<,&,5=4=+",
"sgsauuiuizs28tuussiaiitu2u0ii8ijy99894421:;02gsZy8944,,97544",
"iuutttttZZg2300ut38ttettuatasudut<tyueuutt3denfbsauyy8<>::,4",
"afputpupfgu3uuf3ttuautpppccatwwutpwpww2323uuuZbasautyty48248",
"IIIPJJIIPIIKKmfe33gKGHJIJJHBFBNNHFBBNbbfusawwnmstt31132811:#",
"NCVMMVVVVCNNBNHBbfffnnZvnbmmfmmmmBFBBBBmAgDgZFZnggxgdggzzgzg",
"mncccbmmaafbnMMBBBfau28088tuuuuuaarBancpsyy0uiddi8ii0yuzsii8",
"cvvcffafffafcbMHPHbut30q000iuuuuuaaFbgatt8488440q88888ugzsiu",
"vvnnnffbdgffsbmPHFvaaisiiuuuutyyfprAfffuu88ui000i8iututugi83",
"sssbnfsafdsussmFNNapuuuutuuatptpuuemffueuy880e2224uutuusna82",
"ptpuptpt>t83t3tvapeww822wewueuyusadFndguu88uufdasiiuwtuggat3",
"nsnnnmZnsiagfgggDfgfgnggnZmmsZzZZZgnnggdzzdiufassuuuusafgdu0",
"sznnnDDvnsgzggggdid080e0uaugakisdzi8t0i0ildisgmZgszzggadfii0",
"snnvnDDvsyuu00i060qd0q003u2t:4,4,8y33431$$:>8aaat4uut08t4328",
"aavscnNvpasy88uii:4600t3ufu8<,,,,,,:1:$441::;uvayi4uy8u88444",
"uscvNNvvppaiuuue44841::83dfu:@,,,,::8966&6,98yAs888y814::446",
"uaaacmncsaaituu3iat8ii8tdmngsiy9,44,&:$:4&4<,iksyi9qq894::44",
"gnnbZHFFZvsaufueazsussusdusskky9,994466q44,4<8gs>,:444,$:,4*",
"AZZAFDDGDAZZGZmmsZZgksszDZZzksy996940iiqilqiiizzgidii6416866",
"ytuut22tut8yuupaaapyy8811248<499q688088884q88u3u88y8qiqi$:,,",
"8uiut2t88822w2uDspw84444414146,4118iutty4i1001i3u8utt04d6444",
"48u828y6ii8yy2tmnu324248$$41$,&91#1iiattu88833208288883dd81#",
"y82y82200118uusZva2<<8416111184,30uuutut280ii0ui816u813ui02;",
"ty3iy81088004>pZZu>:<y81113148841030u8u8008ut032000083ugiy2:",
"w03t22;:::;---->p2>;#$$$#;;1:1:&1*14,@@@+##+11;:o#$$$140q8,$",
"gZAGZDAAGzzzGGGGAGGAzzxZxxxxzdllxdllxjhqhhlhq6ui6qhjqqiixzll",
"3etttnssayiiuiuusuyuiiiliiit4114=$&,5&&=+===449i,4544&,44549",
"uuttaZvsyaaiuttytt88quy8igdt2:&44&+$+&+&**=+,89y&&O$#$&$=$++",
"u3ttaDvsyt8t8u8830u04>88tsd0::1$&$$O+$+&==4$48ik9,,4,,$:+#O ",
"33uuuZansau88830008888uuyfbu211$,&4&==$=+*=::4ak,&,974$$$$$*",
"0000ugsit2t86088338442>>ysZi2:14:,,,$$$141**13us4,,486,$$4=+",
"6003uiait488368832000iiignZgidiqiikiiiiihddfggvvaiu8u644:::+",
"1660uidddiiiiddziu0diigdgaadgggussszggssussssafsssidiiii0i68",
"**1*:;:;:#;+;$100311::>18>2ww8088tyifauuuu32eeer2423388001$$"
};
